<?xml version="1.0" encoding="UTF-8" ?>
<!DOCTYPE svg PUBLIC "-//W3C//DTD SVG 1.1//EN" "http://www.w3.org/Graphics/SVG/1.1/DTD/svg11.dtd">
<svg width="116pt" height="116pt" viewBox="0 0 116 116" version="1.1" xmlns="http://www.w3.org/2000/svg">
<g id="#000000cb">
<path fill="#000000" opacity="0.80" d=" M 57.28 0.00 L 58.36 0.00 C 62.86 2.21 66.85 5.41 71.52 7.25 C 76.61 8.00 81.83 6.78 86.90 7.80 C 90.08 11.85 91.74 16.90 94.99 20.90 C 99.03 24.07 104.12 25.67 108.04 29.02 C 108.77 34.17 107.62 39.44 108.54 44.56 C 110.63 49.13 113.56 53.28 116.00 57.68 L 116.00 58.03 C 113.99 61.34 112.06 64.70 110.08 68.02 C 106.34 73.58 109.31 80.61 107.96 86.77 C 103.99 90.07 98.89 91.66 94.90 94.92 C 91.78 99.03 89.73 103.85 86.95 108.20 C 81.71 108.51 76.42 107.88 71.21 108.52 C 66.60 110.56 62.44 113.50 58.07 116.00 L 57.77 116.00 C 53.27 113.66 49.17 110.57 44.52 108.55 C 39.41 107.70 34.18 108.80 29.05 108.07 C 25.68 104.18 24.09 99.11 20.95 95.05 C 16.96 91.60 11.52 90.20 7.66 86.60 C 6.83 81.50 8.05 76.28 7.15 71.21 C 5.21 66.70 2.19 62.75 0.00 58.37 L 0.00 57.24 C 2.26 52.75 5.48 48.74 7.28 44.02 C 7.94 38.99 6.79 33.86 7.76 28.86 C 11.74 25.62 16.80 24.02 20.77 20.77 C 23.93 16.66 25.93 11.78 28.85 7.49 C 34.03 7.19 39.28 7.87 44.42 7.18 C 48.94 5.24 52.90 2.22 57.28 0.00 M 47.85 7.48 C 54.55 7.41 61.24 7.41 67.94 7.49 C 64.60 5.48 61.21 3.57 57.81 1.66 C 54.48 3.59 51.10 5.42 47.85 7.48 M 23.92 19.21 C 29.73 15.92 35.50 12.57 41.27 9.20 C 37.45 9.17 33.63 9.21 29.82 9.16 C 27.80 12.48 25.87 15.85 23.92 19.21 M 44.46 9.48 C 38.42 12.64 32.65 16.32 26.67 19.61 C 24.63 20.82 22.22 21.80 21.12 24.06 C 17.57 30.23 14.04 36.42 10.42 42.55 C 9.60 43.88 9.01 45.36 9.17 46.95 C 9.22 54.31 9.18 61.66 9.18 69.01 C 9.00 71.66 10.91 73.72 12.06 75.92 C 15.59 81.70 18.61 87.81 22.39 93.42 C 29.81 97.94 37.33 102.38 45.02 106.42 C 51.32 106.76 57.64 106.40 63.95 106.55 C 67.11 106.46 70.61 107.17 73.33 105.13 C 79.95 101.11 86.86 97.56 93.35 93.37 C 97.59 86.85 101.15 79.88 105.19 73.22 C 106.96 70.83 106.45 67.77 106.49 64.99 C 106.40 58.67 106.54 52.36 106.47 46.04 C 106.54 44.56 105.60 43.32 104.97 42.06 C 101.36 35.95 97.87 29.78 94.31 23.64 C 93.54 22.04 91.87 21.28 90.43 20.42 C 84.55 17.10 78.71 13.69 72.87 10.29 C 70.24 8.51 66.93 9.36 63.96 9.19 C 57.47 9.43 50.90 8.77 44.46 9.48 M 74.40 9.13 C 80.11 12.65 86.01 15.85 91.78 19.27 C 89.85 15.88 87.91 12.49 85.86 9.17 C 82.04 9.23 78.22 9.18 74.40 9.13 M 9.13 29.84 C 9.24 33.66 9.18 37.47 9.14 41.28 C 12.60 35.56 15.88 29.73 19.22 23.93 C 15.83 25.87 12.45 27.81 9.13 29.84 M 96.42 23.92 C 99.84 29.66 103.02 35.54 106.52 41.23 C 106.36 37.44 106.73 33.63 106.31 29.85 C 103.22 27.56 99.71 25.92 96.42 23.92 M 1.66 57.82 C 3.57 61.21 5.48 64.60 7.49 67.93 C 7.39 61.24 7.40 54.55 7.48 47.86 C 5.41 51.10 3.59 54.49 1.66 57.82 M 108.22 47.80 C 108.23 54.51 108.27 61.22 108.19 67.93 C 110.19 64.61 112.07 61.21 114.05 57.88 C 112.12 54.51 110.22 51.13 108.22 47.80 M 9.10 74.39 C 9.19 78.21 9.24 82.03 9.15 85.85 C 12.45 87.88 15.81 89.81 19.18 91.73 C 15.88 85.92 12.59 80.09 9.10 74.39 M 96.46 91.77 C 99.81 89.82 103.18 87.91 106.49 85.89 C 106.46 82.08 106.49 78.26 106.46 74.44 C 103.10 80.20 99.77 85.98 96.46 91.77 M 29.78 106.30 C 33.59 106.91 37.49 106.38 41.33 106.56 C 35.66 103.11 29.84 99.91 24.12 96.54 C 25.86 99.87 27.62 103.22 29.78 106.30 M 74.30 106.53 C 78.16 106.56 82.02 106.53 85.88 106.54 C 87.90 103.20 89.83 99.82 91.78 96.44 C 85.95 99.79 80.11 103.15 74.30 106.53 M 47.86 108.28 C 51.18 110.24 54.54 112.14 57.88 114.05 C 61.17 112.08 64.54 110.22 67.84 108.26 C 61.18 108.29 54.52 108.25 47.86 108.28 Z" />
<path fill="#000000" opacity="0.80" d=" M 14.64 54.03 C 13.90 47.56 25.66 46.84 25.73 53.41 C 23.18 52.82 20.53 49.71 17.92 51.90 C 16.71 52.42 16.75 54.70 18.18 54.78 C 21.14 55.72 26.50 55.67 26.18 60.07 C 25.69 66.50 14.49 66.14 14.32 59.56 C 16.27 59.62 17.56 61.05 19.04 62.05 C 21.13 62.89 22.90 61.42 24.22 60.00 C 21.99 56.46 15.28 59.12 14.64 54.03 Z" />
<path fill="#000000" opacity="0.80" d=" M 27.89 49.15 C 28.54 49.09 29.84 48.96 30.49 48.89 C 30.22 54.16 30.28 59.42 30.52 64.68 C 29.89 64.59 28.62 64.39 27.98 64.30 C 27.79 59.25 27.96 54.20 27.89 49.15 Z" />
<path fill="#000000" opacity="0.80" d=" M 36.18 48.94 C 36.91 48.97 38.36 49.03 39.09 49.05 C 37.20 51.68 35.22 54.24 33.23 56.79 C 35.48 59.34 37.76 61.87 39.82 64.59 C 35.55 65.48 33.82 60.79 31.59 58.15 L 30.93 58.90 C 30.93 57.69 30.94 56.49 30.95 55.28 C 32.91 53.35 34.57 51.15 36.18 48.94 Z" />
<path fill="#000000" opacity="0.80" d=" M 45.29 49.46 C 51.08 46.67 58.39 52.91 56.20 59.04 C 54.60 65.06 45.93 66.74 42.11 61.88 C 38.52 57.99 40.44 51.25 45.29 49.46 M 45.39 52.26 C 42.14 53.98 41.91 59.03 44.94 61.07 C 48.20 63.85 54.08 61.40 53.96 56.99 C 54.34 52.75 48.80 49.70 45.39 52.26 Z" />
<path fill="#000000" opacity="0.80" d=" M 58.65 48.93 C 59.29 48.97 60.55 49.05 61.18 49.09 C 61.16 51.53 61.14 53.97 61.10 56.42 C 63.84 53.75 65.18 48.29 69.80 48.87 C 68.19 51.73 65.43 53.96 64.13 56.92 C 66.05 59.55 68.54 61.73 70.23 64.54 C 69.51 64.54 68.08 64.54 67.37 64.54 C 65.23 62.13 63.16 59.66 61.15 57.14 C 61.17 59.58 61.16 62.03 61.18 64.47 C 60.54 64.49 59.26 64.53 58.62 64.55 C 58.61 59.34 58.57 54.14 58.65 48.93 Z" />
<path fill="#000000" opacity="0.80" d=" M 76.20 49.37 C 81.91 46.85 88.84 52.93 86.88 58.92 C 85.40 64.59 77.45 66.79 73.37 62.49 C 68.97 58.78 70.82 51.05 76.20 49.37 M 77.49 51.58 C 73.77 52.38 71.95 57.50 74.74 60.26 C 77.32 63.52 83.09 62.52 84.34 58.53 C 85.97 54.53 81.46 50.18 77.49 51.58 Z" />
<path fill="#000000" opacity="0.80" d=" M 88.15 48.72 C 88.78 48.86 90.03 49.14 90.65 49.28 C 92.50 52.78 93.57 56.64 95.26 60.23 C 96.90 56.57 98.02 52.68 99.94 49.15 C 100.57 49.07 101.84 48.91 102.47 48.82 C 100.01 54.31 98.73 60.55 95.03 65.34 C 92.12 60.09 90.08 54.39 88.15 48.72 Z" />
</g>
</svg>
